<svg width="89" height="76" xmlns="http://www.w3.org/2000/svg">
 <title>Artboard 15</title>

 <g>
  <title>background</title>
  <rect fill="none" id="canvas_background" height="78" width="91" y="-1" x="-1"/>
 </g>
 <g>
  <title>Layer 1</title>
  <path fill="#2bf2f2" id="svg_1" d="m0.65078,27.17l42.54,46.28a2.5,2.5 0 0 0 3.68,0l42.54,-46.28a2.5,2.5 0 0 0 0.18,-3.17l-16.83,-23a2.5,2.5 0 0 0 -2,-1l-51.44,0a2.5,2.5 0 0 0 -2,1l-16.83,23a2.5,2.5 0 0 0 0.16,3.17zm62.92,0.81l18.3,0l-30.23,32.89l11.93,-32.89zm-18.54,36.45l-13.22,-36.45l26.44,0l-13.22,36.45zm0,-57.75l11.88,16.3l-23.76,0l11.88,-16.3zm-16,13.49l-5.39,-15.24l16.48,0l-11.09,15.24zm20.91,-15.24l16.48,0l-5.39,15.24l-11.09,-15.24zm-23.46,23l11.93,32.9l-30.22,-32.85l18.29,-0.05zm56.16,-5l-17.29,0l5.63,-16l11.66,16zm-63.61,-15.91l5.63,16l-17.24,0l11.61,-16z"/>
  <path id="svg_2" d="m0.50312,-23.84865l-4.51,4.51a2.5,2.5 0 1 0 3.51,3.54l4.51,-4.51a2.5,2.5 0 0 0 -3.51,-3.54z"/>
  <path id="svg_3" d="m-14.3758,-13.95609a2.5,2.5 0 0 0 0,3.54l4.49,4.51a2.5,2.5 0 0 0 3.54,-3.54l-4.54,-4.51a2.5,2.5 0 0 0 -3.49,0z"/>
  <path id="svg_4" d="m-12.88817,-6.83281l0,6.38a2.5,2.5 0 1 0 5,0l0,-6.38a2.5,2.5 0 0 0 -5,0z"/>
 </g>
</svg>