<svg width="89" height="77" xmlns="http://www.w3.org/2000/svg">

 <g>
  <title>background</title>
  <rect fill="none" id="canvas_background" height="79" width="91" y="-1" x="-1"/>
 </g>
 <g>
  <title>Layer 1</title>
  <g id="svg_1">
   <g id="svg_2">
    <path fill="#1a1aed" id="svg_3" d="m12.31217,11.098l-9.71,25.647c-3.785,-5.55 -2.469,-13.798 -1.976,-15.748l11.686,-9.899zm6.748,33.895c-1.811,-0.449 -3.292,-1.05 -4.772,-1.499c-4.115,-1.65 -7.077,-3.3 -8.724,-4.05l22.877,-15.447l12.509,24.896c-6.255,-0.3 -12.509,-1.199 -18.927,-2.999l-2.963,-0.901zm-12.179,-10.198l8.064,-21.297c1.975,2.85 6.418,5.249 12.837,7.199l-20.901,14.098zm14.319,13.948c7.899,2.249 15.8,3.3 23.535,3.3c9.71,0 18.927,-1.8 27.32,-5.1l-26.168,27.896l-32.752,-28.646c1.481,0.6 3.127,1.2 4.772,1.649l3.293,0.901zm19.914,-28.496c-7.241,-0.9 -20.243,-3.6 -23.699,-8.699c-0.658,-1.05 -0.987,-2.1 -0.658,-3.3c0.987,-1.799 3.456,-3.449 6.912,-4.949c5.431,-2.1 12.508,-3.299 20.079,-3.299c7.57,0 14.812,1.2 20.078,3.299c3.292,1.35 5.597,2.85 6.748,4.5c0.494,0.9 0.987,2.7 0.165,4.5c-1.152,1.799 -3.456,3.299 -6.913,4.649c-5.266,2.1 -12.508,3.3 -20.078,3.3l-2.634,0l0,-0.001zm1.81,49.043l2.304,-2.1l-14.318,-12.898l-2.304,2.1l14.318,12.898zm-11.356,-47.693c6.419,1.5 12.015,1.95 12.344,1.95l0.165,0c3.785,-0.15 7.241,-0.45 10.368,-0.75l-10.863,24.146l-12.836,-25.646l0.822,0.3zm25.511,3.15l18.269,17.248c-8.394,3.899 -17.117,6.299 -26.169,6.898c-0.987,0 -1.975,0.15 -2.962,0.15l10.862,-24.296zm4.279,28.646l-14.154,12.748l2.304,2.1l14.154,-12.748l-2.304,-2.1zm-2.469,-31.346c6.254,-1.2 10.697,-3.3 13.166,-5.999l3.292,21.597l-16.458,-15.598zm22.054,-7.349l-6.748,-2.7c0.164,-0.6 0.164,-1.35 0.164,-1.95l6.584,4.65zm6.089,4.949c2.14,5.399 1.317,10.349 -2.304,15.148c-1.975,2.399 -4.114,4.05 -5.596,5.1l-3.785,-24.147l11.355,4.5l0.33,-0.601z"/>
   </g>
  </g>
  <text id="svg_4" font-family="'Helvetica Neue', Helvetica, Arial-Unicode, Arial, Sans-serif" font-weight="bold" font-size="5px" fill="#000000" y="115" x="0">Created by Ashia Sabbath</text>
  <text id="svg_5" font-family="'Helvetica Neue', Helvetica, Arial-Unicode, Arial, Sans-serif" font-weight="bold" font-size="5px" fill="#000000" y="120" x="0">from the Noun Project</text>
 </g>
</svg>