<svg width="90" height="73" xmlns="http://www.w3.org/2000/svg">

 <g>
  <title>background</title>
  <rect fill="none" id="canvas_background" height="75" width="92" y="-1" x="-1"/>
 </g>
 <g>
  <title>Layer 1</title>
  <path id="svg_1" d="m901.428,70.196l0,-40.387l-9.194,0l0,-14.754c2.053,-0.508 3.586,-2.352 3.586,-4.56c0,-2.597 -2.114,-4.709 -4.714,-4.709c-2.595,0 -4.709,2.111 -4.713,4.709c0,2.208 1.532,4.052 3.586,4.56l0,14.753l-11.406,0l0,40.387l11.406,0l0,14.748c-2.054,0.509 -3.586,2.351 -3.586,4.558c0,2.598 2.114,4.711 4.713,4.711c2.6,0 4.71,-2.113 4.71,-4.711c0,-2.206 -1.529,-4.048 -3.582,-4.557l0,-14.748l9.194,0zm-12.781,-59.698c0.005,-1.355 1.105,-2.456 2.458,-2.456c1.357,0 2.458,1.1 2.458,2.454c0,1.354 -1.101,2.456 -2.458,2.456c-1.356,0 -2.458,-1.102 -2.458,-2.454zm-7.819,21.566l18.344,0l0,11.359l-18.344,0l0,-11.359zm0,35.876l0,-22.262l18.344,0l0,22.262l-18.344,0zm12.732,21.562c0,1.355 -1.102,2.456 -2.454,2.456c-1.356,0 -2.458,-1.101 -2.458,-2.456c0,-1.354 1.102,-2.454 2.458,-2.454c1.352,0 2.454,1.1 2.454,2.454z" fill="#000000"/>
  <g id="svg_2">
   <path id="svg_3" d="m650,5c-9.936,0 -18.017,8.082 -18.017,18.016l0,3.506l0,36.249l0,3.506c0,2.908 2.366,5.274 5.275,5.274l8.867,0l0,16.069l0,3.506c0,2.136 1.738,3.874 3.874,3.874s3.873,-1.738 3.873,-3.874l0,-3.506l0,-16.069l3.732,0c0.263,0 0.395,0.254 0.395,0.755l0,0.257c0,0.102 -0.008,0.171 -0.015,0.246c-0.039,0.368 -0.152,0.471 -0.28,0.564c-0.776,0.594 -1.239,1.458 -1.352,2.409c-0.02,0.094 -0.047,0.175 -0.047,0.287l0,0.131l0,3.506c0,1.968 1.6,3.57 3.567,3.57s3.57,-1.602 3.57,-3.57l-0.008,-3.43c0.001,-0.025 0.008,-0.05 0.008,-0.076c0,-0.024 -0.008,-0.046 -0.008,-0.071c0,-0.028 -0.009,-0.055 -0.01,-0.082c-0.045,-1.029 -0.517,-1.986 -1.37,-2.665c-0.13,-0.101 -0.287,-0.238 -0.303,-0.721c0,-0.025 -0.006,-0.04 -0.006,-0.065l0,-2.256l0,-1.074c0,-1.133 0.411,-1.221 0.992,-1.221c1.55,0 2.935,-0.684 3.899,-1.752c0.847,-0.935 1.377,-2.163 1.377,-3.521l0,-36.25l0,-3.506c0.004,-9.934 -8.077,-18.016 -18.013,-18.016zm-12.741,65.176c-2.146,0 -3.888,-1.741 -3.898,-3.882c0.966,1.068 2.349,1.752 3.898,1.752l8.867,0l0,2.13l-8.867,0zm15.239,20.95c0,1.377 -1.12,2.499 -2.498,2.499c-1.379,0 -2.499,-1.122 -2.499,-2.499l0,-0.57c0.677,0.576 1.542,0.938 2.499,0.938s1.822,-0.361 2.498,-0.938l0,0.57zm-4.997,-3.506l0,-16.069l0,-3.506l4.997,0l0,3.506l0,16.069c0,1.377 -1.12,2.498 -2.498,2.498c-1.379,0 -2.499,-1.12 -2.499,-2.498zm10.104,-17.444l-3.732,0l0,-2.13l3.732,0c0.263,0 0.395,0.254 0.395,0.754l0,1.418c-0.124,-0.028 -0.257,-0.042 -0.395,-0.042zm2.269,11.724c-1.211,0 -2.194,-0.984 -2.194,-2.193l-0.002,-0.715c0.608,0.48 1.366,0.778 2.196,0.778s1.586,-0.297 2.193,-0.774l0.001,0.711c0,1.209 -0.983,2.193 -2.194,2.193zm6.767,-55.378l0,36.249c0,2.149 -1.748,3.898 -3.9,3.898c-1.527,0 -2.367,0.922 -2.367,2.597l0,3.331c0,1.218 0.589,1.675 0.866,1.893c0.526,0.42 0.829,1.043 0.829,1.711c0,1.209 -0.983,2.193 -2.194,2.193s-2.194,-0.984 -2.194,-2.193c0,-0.685 0.316,-1.317 0.892,-1.757c0.375,-0.27 0.805,-0.727 0.805,-1.88l0,-3.764c0,-1.294 -0.696,-2.13 -1.771,-2.13l-3.732,0l-7.747,0l-8.867,0c-2.151,0 -3.899,-1.749 -3.899,-3.898l0,-36.25l0,-3.506c0,-9.176 7.463,-16.641 16.641,-16.641s16.641,7.465 16.641,16.641l0,3.506l-0.003,0z" fill="#000000"/>
   <path id="svg_4" d="m641.302,53.754l0,-33.195c0,-0.939 0.374,-1.788 0.976,-2.411c-1.262,0.518 -2.152,1.759 -2.152,3.211l0,33.195c0,1.916 1.554,3.473 3.472,3.473c0.979,0 1.862,-0.408 2.494,-1.061c-0.404,0.166 -0.851,0.26 -1.316,0.26c-1.921,-0.001 -3.474,-1.556 -3.474,-3.472z" fill="#000000"/>
   <path id="svg_5" d="m654.107,53.754l0,-33.195c0,-0.939 0.375,-1.788 0.978,-2.411c-1.265,0.518 -2.155,1.759 -2.155,3.211l0,33.195c0,1.916 1.555,3.473 3.473,3.473c0.98,0 1.864,-0.408 2.496,-1.061c-0.407,0.166 -0.853,0.26 -1.316,0.26c-1.919,-0.001 -3.476,-1.556 -3.476,-3.472z" fill="#000000"/>
  </g>
  <g id="svg_6">
   <path id="svg_7" d="m770,5.955c-9.725,0 -17.635,7.911 -17.635,17.634l0,3.432l0,35.479l0,3.432c0,2.846 2.317,5.162 5.164,5.162l8.679,0l0,15.728l0,3.432c0,2.091 1.702,3.792 3.792,3.792c2.091,0 3.791,-1.701 3.791,-3.792l0,-3.432l0,-15.728l8.679,0c2.849,0 5.165,-2.316 5.165,-5.162l0,-3.432l0,-35.48l0,-3.432c0,-9.723 -7.91,-17.633 -17.635,-17.633zm-12.471,63.793c-2.101,0 -3.807,-1.704 -3.815,-3.8c0.944,1.045 2.298,1.715 3.815,1.715l8.679,0l0,2.085l-8.679,0zm14.915,20.505c0,1.349 -1.097,2.446 -2.444,2.446c-1.349,0 -2.445,-1.097 -2.445,-2.446l0,-0.558c0.663,0.564 1.509,0.918 2.445,0.918s1.782,-0.354 2.444,-0.918l0,0.558zm-4.889,-3.431l0,-15.728l0,-3.432l4.89,0l0,3.432l0,15.728c0,1.348 -1.097,2.446 -2.444,2.446c-1.35,0 -2.446,-1.098 -2.446,-2.446zm-1.347,-20.506l-8.679,0c-2.104,0 -3.817,-1.712 -3.817,-3.815l0,-35.48l0,-3.432c0,-8.981 7.307,-16.288 16.288,-16.288s16.288,7.307 16.288,16.288l0,3.432l0,35.479c0,2.104 -1.713,3.815 -3.818,3.815l-8.679,0l-7.583,0l0,0.001zm16.262,3.432l-8.679,0l0,-2.085l8.679,0c1.517,0 2.872,-0.67 3.816,-1.715c-0.009,2.096 -1.715,3.8 -3.816,3.8z" fill="#000000"/>
   <path id="svg_8" d="m765.92,56.195c-0.332,0.135 -0.68,0.204 -1.034,0.204c-1.503,0 -2.727,-1.222 -2.727,-2.724l0,-32.492c0,-0.709 0.272,-1.381 0.767,-1.892c0.222,-0.229 0.253,-0.582 0.074,-0.846c-0.18,-0.264 -0.52,-0.367 -0.813,-0.245c-1.535,0.63 -2.527,2.108 -2.527,3.767l0,32.49c0,2.246 1.828,4.073 4.072,4.073c1.111,0 2.149,-0.441 2.926,-1.244c0.221,-0.229 0.252,-0.582 0.073,-0.846c-0.178,-0.262 -0.518,-0.367 -0.811,-0.245z" fill="#000000"/>
   <path id="svg_9" d="m779.193,57.286c0.221,-0.229 0.252,-0.582 0.073,-0.846c-0.178,-0.263 -0.518,-0.367 -0.812,-0.246c-0.332,0.135 -0.68,0.204 -1.035,0.204c-1.503,0 -2.727,-1.222 -2.727,-2.724l0,-32.491c0,-0.709 0.273,-1.381 0.769,-1.891c0.221,-0.229 0.253,-0.582 0.073,-0.847c-0.178,-0.263 -0.517,-0.364 -0.812,-0.246c-1.537,0.629 -2.528,2.108 -2.528,3.767l0,32.49c0,2.246 1.826,4.073 4.071,4.073c1.114,0.001 2.152,-0.441 2.928,-1.243z" fill="#000000"/>
  </g>
  <path id="svg_10" d="m1161.49,32.94c-1.89,-15.716 -15.297,-27.94 -31.513,-27.94c-16.257,0 -29.691,12.284 -31.529,28.055c-4.836,6.625 -7.451,14.577 -7.451,22.932c0.003,10.424 4.062,20.221 11.43,27.583c7.371,7.371 17.166,11.43 27.586,11.43c10.419,0 20.216,-4.059 27.584,-11.427c7.359,-7.359 11.409,-17.155 11.408,-27.583c-0.001,-8.413 -2.638,-16.41 -7.515,-23.05zm-1.145,4.211c0,4.704 -1.108,9.145 -3.025,13.123l-0.007,0l0,0.011c-0.953,1.976 -2.105,3.835 -3.448,5.546c-0.07,-1.206 -0.553,-2.332 -1.412,-3.193c-1.048,-1.046 -2.532,-1.482 -3.963,-1.35c3.01,-3.926 4.82,-8.818 4.82,-14.136c0,-5.318 -1.811,-10.21 -4.821,-14.137c1.432,0.132 2.916,-0.304 3.964,-1.352c0.859,-0.859 1.342,-1.985 1.413,-3.188c4.043,5.155 6.479,11.631 6.479,18.676zm-0.026,9.437l0,5.734l0,1.849c0,3.375 -0.577,6.614 -1.599,9.649l0,-11.498l0,-1.648c0.623,-1.316 1.161,-2.679 1.599,-4.086zm-3.006,6.728l0,13.937c-0.526,1.096 -1.108,2.157 -1.759,3.175l0,-14.459c0.63,-0.852 1.215,-1.738 1.759,-2.653zm-3.167,4.418l0,14.705c-0.541,0.715 -1.113,1.404 -1.715,2.067l0,-14.888c0.006,-0.006 0.013,-0.011 0.019,-0.017c0.042,-0.042 0.071,-0.093 0.111,-0.136c0.551,-0.556 1.078,-1.135 1.585,-1.731zm-15.244,-25.266l-7.356,-7.359c0.065,-0.18 0.116,-0.37 0.116,-0.573c0,-0.917 -0.745,-1.662 -1.662,-1.662c-0.916,0 -1.662,0.746 -1.662,1.662s0.746,1.661 1.662,1.661c0.19,0 0.365,-0.05 0.535,-0.108l7.373,7.374c-2.113,1.88 -4.888,3.033 -7.932,3.033c-6.594,0 -11.96,-5.365 -11.96,-11.96c0,-6.595 5.366,-11.96 11.96,-11.96s11.96,5.365 11.96,11.96c0.001,3.045 -1.154,5.818 -3.034,7.932zm3.035,-1.998l0,6.73c0,6.357 -4.99,11.557 -11.257,11.924l0,-11.256c4.938,-0.26 9.166,-3.2 11.257,-7.398zm-12.664,7.398l0,11.256c-0.583,-0.034 -1.157,-0.095 -1.715,-0.211l0,-11.24c0.561,0.102 1.132,0.164 1.715,0.195zm-3.122,-0.53l0,11.182c-0.609,-0.206 -1.198,-0.455 -1.759,-0.753l0,-11.103c0.568,0.263 1.151,0.493 1.759,0.674zm-3.049,-1.36l-0.116,0l0,10.905c-0.645,-0.466 -1.238,-0.994 -1.776,-1.577l0,-10.705c0.586,0.513 1.22,0.971 1.892,1.377zm-3.239,-2.728l-0.063,0l0,10.203c-1.123,-1.823 -1.784,-3.96 -1.784,-6.254l0,-6.73c0.501,1.006 1.12,1.939 1.847,2.781zm10.114,17.316c7.371,0 13.367,-5.997 13.367,-13.367l0,-12.444c3.045,3.269 4.923,7.636 4.923,12.445c0,10.086 -8.204,18.292 -18.29,18.292s-18.292,-8.206 -18.292,-18.292c0,-4.809 1.879,-9.177 4.925,-12.446l0,12.446c-0.001,7.37 5.996,13.366 13.367,13.366zm-13.216,-27.932c-3.972,3.606 -6.483,8.791 -6.483,14.565c0,6.071 2.764,11.505 7.096,15.122c3.419,2.854 7.813,4.577 12.604,4.577c4.79,0 9.184,-1.723 12.604,-4.577c4.331,-3.617 7.095,-9.051 7.095,-15.122c0,-5.774 -2.512,-10.958 -6.481,-14.564c-0.19,-1.318 -0.568,-2.571 -1.112,-3.736c0.26,0.173 0.513,0.358 0.765,0.542c0.15,0.11 0.302,0.218 0.449,0.331c0.308,0.235 0.609,0.475 0.904,0.726c0.015,0.012 0.027,0.026 0.044,0.04c4.683,4.018 7.658,9.973 7.658,16.614c0,5.888 -2.347,11.231 -6.14,15.17c-1.992,2.067 -4.378,3.749 -7.043,4.911c-0.074,0.033 -0.146,0.072 -0.222,0.104c-0.413,0.175 -0.845,0.316 -1.271,0.466c-0.266,0.092 -0.523,0.201 -0.792,0.283c-0.214,0.066 -0.437,0.109 -0.653,0.168c-1.863,0.505 -3.798,0.787 -5.782,0.787c-1.954,0 -3.863,-0.276 -5.7,-0.767c-0.247,-0.066 -0.5,-0.116 -0.742,-0.19c-0.233,-0.072 -0.457,-0.167 -0.688,-0.246c-0.464,-0.16 -0.93,-0.315 -1.379,-0.505c-0.03,-0.013 -0.058,-0.029 -0.088,-0.042c-2.717,-1.164 -5.142,-2.869 -7.164,-4.968c-2.81,-2.92 -4.829,-6.604 -5.683,-10.717c-0.004,-0.017 -0.009,-0.032 -0.013,-0.049c-0.125,-0.615 -0.214,-1.241 -0.286,-1.869c-0.011,-0.107 -0.035,-0.21 -0.046,-0.315c-0.074,-0.733 -0.112,-1.473 -0.112,-2.22c0,-0.749 0.038,-1.489 0.112,-2.218c0.011,-0.116 0.037,-0.229 0.051,-0.345c0.072,-0.619 0.158,-1.235 0.281,-1.837c0.006,-0.033 0.018,-0.065 0.023,-0.098c0.137,-0.657 0.313,-1.301 0.509,-1.939c0.037,-0.122 0.078,-0.241 0.116,-0.361c0.191,-0.588 0.406,-1.165 0.645,-1.733c0.016,-0.034 0.027,-0.067 0.041,-0.102c0.559,-1.295 1.238,-2.528 2.024,-3.681c0,0 0,-0.002 0.002,-0.002c1.587,-2.324 3.609,-4.329 5.95,-5.894c-0.536,1.15 -0.907,2.39 -1.093,3.691zm-8.218,-6.938c5.73,-5.731 13.352,-8.889 21.457,-8.89c8.104,0 15.726,3.156 21.457,8.888c0.665,0.664 1.03,1.547 1.03,2.487s-0.365,1.823 -1.03,2.488c-1.33,1.329 -3.647,1.329 -4.975,0c-1.77,-1.77 -3.781,-3.203 -5.949,-4.304c-2.449,-3.153 -6.264,-5.195 -10.557,-5.195c-4.308,0 -8.136,2.058 -10.582,5.232c-2.141,1.097 -4.126,2.52 -5.876,4.27c-4.401,4.403 -6.827,10.256 -6.827,16.481c0,6.228 2.423,12.081 6.826,16.481c4.396,4.395 10.248,6.815 16.481,6.815s12.086,-2.42 16.481,-6.815c1.328,-1.327 3.645,-1.33 4.977,0c0.663,0.665 1.028,1.548 1.028,2.488c0,0.939 -0.365,1.822 -1.03,2.486c-5.723,5.722 -13.342,8.873 -21.456,8.873l-0.007,0.704l0,-0.704c-6.661,0 -12.973,-2.157 -18.192,-6.088l0,-0.115l-0.153,0c-1.079,-0.823 -2.128,-1.695 -3.104,-2.67c-2.65,-2.649 -4.722,-5.715 -6.213,-9.035l0,-0.002l-0.002,0c-1.732,-3.858 -2.673,-8.062 -2.673,-12.418c0.001,-8.107 3.158,-15.727 8.889,-21.457zm42.482,45.219l0,15.064c-0.576,0.555 -1.159,1.103 -1.776,1.611l0,-15.211c0.132,-0.102 0.263,-0.207 0.396,-0.311c0.284,-0.226 0.567,-0.453 0.845,-0.689c0.179,-0.152 0.358,-0.307 0.535,-0.464zm-3.183,2.491l0,15.238c-0.573,0.419 -1.157,0.818 -1.759,1.197l0,-15.33c0.341,-0.201 0.677,-0.409 1.009,-0.623c0.251,-0.159 0.504,-0.314 0.75,-0.482zm-3.167,1.896l0,15.396c-0.557,0.31 -1.136,0.582 -1.713,0.857l0,-15.43c0.515,-0.231 1.02,-0.474 1.519,-0.731c0.064,-0.033 0.131,-0.059 0.194,-0.092zm-3.12,1.414l0,15.492c-0.581,0.241 -1.179,0.446 -1.778,0.652l0,-15.505c0.602,-0.195 1.193,-0.409 1.778,-0.639zm-5.304,1.566c0.273,-0.055 0.54,-0.131 0.811,-0.194c0.106,-0.026 0.213,-0.049 0.319,-0.076c0.328,-0.08 0.663,-0.147 0.989,-0.236l0,15.534c-0.58,0.167 -1.166,0.32 -1.759,0.453l0,-15.48l-0.36,0l0,-0.001zm-1.048,0.188l0,15.563c-0.567,0.1 -1.134,0.195 -1.713,0.262l0,-15.588c0.576,-0.063 1.147,-0.144 1.713,-0.237zm-3.119,0.357l0,15.582c-0.7,0.048 -1.396,0.106 -2.107,0.106c-0.816,0 -1.618,-0.059 -2.418,-0.122l0,-15.593c0.806,0.062 1.618,0.103 2.441,0.103c0.701,0 1.394,-0.031 2.084,-0.076zm-5.933,-0.166l0,15.585c-0.577,-0.073 -1.149,-0.157 -1.715,-0.262l0,-15.58c0.566,0.101 1.138,0.187 1.715,0.257zm-3.122,-0.539l0,15.56c-0.591,-0.139 -1.182,-0.28 -1.759,-0.454l0,-15.556c0.581,0.167 1.166,0.317 1.759,0.45zm-3.166,-0.888l0,15.512c-0.646,-0.229 -1.291,-0.458 -1.918,-0.73l0.143,0l0,-15.436c0.04,0.017 0.082,0.028 0.123,0.044c0.544,0.218 1.094,0.421 1.652,0.61zm-3.182,-1.271l0,15.442c-0.585,-0.287 -1.163,-0.582 -1.726,-0.904l0.011,0l0,-15.376c0.195,0.105 0.398,0.19 0.595,0.291c0.37,0.189 0.742,0.373 1.12,0.547zm-3.122,-1.657l0,15.347c-0.697,-0.451 -1.368,-0.936 -2.025,-1.44l0.267,0l0,-15.067c0.038,0.026 0.074,0.053 0.109,0.079c0.343,0.237 0.688,0.466 1.038,0.688c0.202,0.131 0.403,0.267 0.611,0.393zm-3.166,-2.208l0,15.214c-0.689,-0.585 -1.357,-1.193 -1.993,-1.836l0.217,0l0,-14.875c0.279,0.254 0.566,0.5 0.854,0.744c0.303,0.258 0.61,0.506 0.92,0.751c0.001,0.001 0.001,0.001 0.002,0.002zm-3.183,-2.871l0,14.939c-0.604,-0.687 -1.175,-1.4 -1.714,-2.139l0,-14.688c0.101,0.122 0.218,0.233 0.321,0.355c0.436,0.51 0.886,1.008 1.355,1.494c0.014,0.013 0.025,0.027 0.038,0.039zm-3.121,-3.759l0,14.454c-0.65,-1.064 -1.243,-2.163 -1.759,-3.307l0,-13.918c0.008,0.015 0.016,0.028 0.024,0.043c0.264,0.465 0.538,0.922 0.825,1.373c0.258,0.406 0.522,0.806 0.799,1.201c0.038,0.051 0.075,0.102 0.111,0.154zm-4.458,-3.146l0,-5.862c0.033,0.107 0.08,0.209 0.113,0.315c0.206,0.648 0.438,1.288 0.687,1.921c0.156,0.4 0.319,0.795 0.491,1.189l0,2.437l0,10.572c-0.831,-2.766 -1.291,-5.69 -1.291,-8.723l0,-1.849zm56.971,30.256c-7.104,7.103 -16.547,11.015 -26.59,11.015c-10.042,0 -19.485,-3.913 -26.592,-11.018c-7.102,-7.098 -11.014,-16.541 -11.018,-26.589c0,-7.243 2.045,-14.168 5.845,-20.136c-0.009,0.3 -0.023,0.6 -0.023,0.901l0,1.85l0,13.721l0,1.849c0,17.508 14.243,31.751 31.753,31.751c2.264,0 4.468,-0.251 6.597,-0.704l0.038,0l0,-0.008c7.649,-1.633 14.291,-6.017 18.816,-12.078l0.126,0l0,-0.177c3.877,-5.264 6.173,-11.76 6.173,-18.784l0,-1.849l0,-13.721l0,-0.475c0.01,-0.325 0.025,-0.648 0.025,-0.975c0,-0.463 -0.016,-0.923 -0.036,-1.382c3.823,5.979 5.881,12.936 5.881,20.22c0.001,10.053 -3.904,19.496 -10.995,26.589z" fill="#000000"/>
  <path id="svg_11" d="m1016.797,17.583c-2.055,-0.895 -4.319,-1.394 -6.703,-1.394c-0.016,0 -0.031,0.002 -0.05,0.002c-0.016,0 -0.031,-0.002 -0.047,-0.002c-2.381,0 -4.646,0.499 -6.703,1.388c-0.794,0.25 -1.559,0.535 -2.265,0.92l-36.029,13.257l0,2.676l19.331,7.116l-19.331,7.114l0,2.676l19.331,7.116l-19.331,7.114l0,2.676l37.545,13.821c2.251,1.109 4.775,1.749 7.452,1.749c0.019,0 0.034,-0.002 0.052,-0.002c0.016,0 0.029,0.002 0.045,0.002c0.152,0 0.298,-0.023 0.448,-0.027c0.443,-0.014 0.89,-0.034 1.326,-0.082c0.354,-0.039 0.702,-0.099 1.05,-0.16c0.236,-0.042 0.475,-0.08 0.706,-0.13c0.387,-0.085 0.768,-0.184 1.146,-0.294c0.171,-0.051 0.343,-0.104 0.514,-0.16c0.412,-0.136 0.822,-0.281 1.222,-0.447c0.078,-0.032 0.15,-0.067 0.226,-0.1c0.355,-0.154 0.719,-0.295 1.062,-0.472l37.206,-13.698l0,-2.676l-19.331,-7.113l19.331,-7.117l0,-2.676l-19.331,-7.113l19.331,-7.117l0,-2.676l-36.032,-13.257c-0.68,-0.373 -1.411,-0.663 -2.171,-0.914zm-12.922,1.191c0.141,-0.042 0.272,-0.084 0.418,-0.125l0.067,-0.019l0.064,-0.025c1.819,-0.716 3.71,-1.08 5.619,-1.086c8.568,0.025 15.531,7.002 15.531,15.578c0,1.562 -0.236,3.068 -0.667,4.492l-5.94,-2.186c-0.68,-0.374 -1.411,-0.663 -2.171,-0.914c-2.055,-0.895 -4.319,-1.395 -6.703,-1.395c-0.016,0 -0.031,0.002 -0.05,0.002c-0.016,0 -0.031,-0.002 -0.047,-0.002c-2.381,0 -4.646,0.499 -6.703,1.389c-0.794,0.25 -1.559,0.534 -2.265,0.92l-5.942,2.187c-0.429,-1.424 -0.667,-2.931 -0.667,-4.493c0.001,-6.418 3.902,-11.939 9.456,-14.323zm-0.306,45.347l-0.034,-0.016l-0.036,-0.014c-0.078,-0.031 -0.161,-0.059 -0.241,-0.087c-0.036,-0.012 -0.075,-0.023 -0.109,-0.038l-0.038,-0.018l-0.016,-0.005c-2.514,-1.25 -4.644,-3.15 -6.164,-5.49c1.676,-2.582 4.089,-4.642 6.944,-5.869c0.141,-0.042 0.272,-0.084 0.418,-0.125l0.067,-0.019l0.064,-0.025c1.819,-0.716 3.71,-1.08 5.619,-1.086c5.453,0.017 10.249,2.854 13.02,7.124c-1.942,2.99 -4.874,5.278 -8.334,6.384c-0.075,0.023 -0.151,0.046 -0.227,0.069c-0.415,0.126 -0.838,0.235 -1.269,0.326c-0.129,0.027 -0.259,0.047 -0.392,0.071c-0.386,0.072 -0.778,0.137 -1.175,0.18c-0.327,0.033 -0.659,0.046 -0.991,0.059c-0.21,0.009 -0.417,0.031 -0.63,0.032c-2.227,-0.006 -4.405,-0.493 -6.476,-1.453zm0.724,-28.566l0.067,-0.019l0.064,-0.025c1.819,-0.716 3.71,-1.08 5.619,-1.086c5.453,0.017 10.249,2.854 13.02,7.124c-1.942,2.99 -4.874,5.278 -8.334,6.384c-0.075,0.023 -0.151,0.046 -0.227,0.069c-0.415,0.126 -0.838,0.235 -1.269,0.326c-0.129,0.027 -0.259,0.047 -0.392,0.071c-0.386,0.072 -0.778,0.137 -1.175,0.18c-0.327,0.033 -0.659,0.046 -0.991,0.058c-0.21,0.009 -0.417,0.031 -0.63,0.032c-2.229,-0.007 -4.407,-0.495 -6.478,-1.454l-0.034,-0.016l-0.036,-0.014c-0.078,-0.031 -0.161,-0.059 -0.241,-0.087c-0.036,-0.012 -0.075,-0.023 -0.109,-0.038l-0.038,-0.018l-0.016,-0.005c-2.514,-1.25 -4.644,-3.15 -6.164,-5.49c1.676,-2.582 4.089,-4.642 6.944,-5.869c0.143,-0.04 0.274,-0.082 0.42,-0.123zm20.172,8.701l-2.752,1.013c0.772,-0.745 1.476,-1.563 2.098,-2.444c0.242,0.464 0.457,0.942 0.654,1.431zm-0.656,-3.984c-0.62,-0.881 -1.323,-1.698 -2.096,-2.444l2.752,1.013c-0.194,0.49 -0.412,0.967 -0.656,1.431zm-27.622,2.552c0.622,0.88 1.323,1.698 2.099,2.443l-2.753,-1.012c0.195,-0.49 0.412,-0.967 0.654,-1.431zm0,-2.551c-0.241,-0.464 -0.459,-0.942 -0.654,-1.432l2.753,-1.013c-0.776,0.746 -1.477,1.564 -2.099,2.445zm-1.902,3.522l-6.106,-2.248l6.104,-2.246c0.309,0.78 0.675,1.53 1.09,2.248c-0.416,0.718 -0.779,1.466 -1.088,2.246zm0,16.906l-6.106,-2.248l6.104,-2.247c0.309,0.78 0.675,1.53 1.09,2.249c-0.416,0.718 -0.779,1.466 -1.088,2.246zm1.902,-0.971c0.622,0.88 1.323,1.698 2.099,2.443l-2.753,-1.012c0.195,-0.49 0.412,-0.968 0.654,-1.431zm-0.655,-3.983l2.753,-1.013c-0.775,0.746 -1.477,1.563 -2.099,2.444c-0.241,-0.463 -0.458,-0.941 -0.654,-1.431zm26.181,-1.014l2.752,1.013c-0.194,0.49 -0.412,0.967 -0.656,1.431c-0.621,-0.881 -1.324,-1.698 -2.096,-2.444zm2.098,4.998c0.242,0.464 0.457,0.941 0.654,1.431l-2.752,1.013c0.772,-0.745 1.475,-1.563 2.098,-2.444zm0.812,-1.276c0.418,-0.719 0.781,-1.468 1.09,-2.25l6.108,2.248l-6.108,2.249c-0.309,-0.78 -0.672,-1.529 -1.09,-2.247zm0.952,-8.453c0,1.562 -0.236,3.068 -0.667,4.492l-5.94,-2.186c-0.68,-0.374 -1.411,-0.663 -2.171,-0.914c-2.055,-0.895 -4.319,-1.395 -6.703,-1.395c-0.016,0 -0.031,0.002 -0.05,0.002c-0.016,0 -0.031,-0.002 -0.047,-0.002c-2.381,0 -4.646,0.499 -6.703,1.389c-0.794,0.25 -1.559,0.534 -2.265,0.92l-5.942,2.187c-0.429,-1.424 -0.667,-2.931 -0.667,-4.493c0,-1.563 0.238,-3.071 0.669,-4.496l7.456,2.745c2.251,1.109 4.775,1.749 7.452,1.749c0.019,0 0.034,-0.002 0.052,-0.002c0.016,0 0.029,0.002 0.045,0.002c0.152,0 0.298,-0.023 0.448,-0.027c0.443,-0.014 0.89,-0.034 1.326,-0.082c0.354,-0.038 0.702,-0.101 1.05,-0.16c0.236,-0.042 0.475,-0.08 0.706,-0.13c0.389,-0.084 0.768,-0.184 1.146,-0.294c0.171,-0.051 0.343,-0.104 0.514,-0.16c0.415,-0.136 0.822,-0.282 1.222,-0.448c0.078,-0.032 0.15,-0.066 0.226,-0.1c0.355,-0.154 0.719,-0.295 1.062,-0.472l7.115,-2.619c0.43,1.425 0.666,2.931 0.666,4.494zm-0.952,-8.453c0.418,-0.718 0.781,-1.468 1.09,-2.249l6.108,2.248l-6.108,2.249c-0.309,-0.78 -0.672,-1.53 -1.09,-2.248zm-58.295,-8.045l0,-0.823l31.957,-11.758c-3.196,3.076 -5.193,7.389 -5.193,12.174c0,1.725 0.262,3.387 0.742,4.954l-7.578,2.789l-19.928,-7.336zm0,16.906l0,-0.823l19.928,-7.332l7.578,2.79c-0.48,1.568 -0.742,3.232 -0.742,4.958c0,1.725 0.262,3.387 0.742,4.954l-7.578,2.789l-19.928,-7.336zm0,16.906l0,-0.823l19.928,-7.332l7.578,2.79c-0.48,1.568 -0.742,3.232 -0.742,4.958c0,4.785 1.997,9.096 5.193,12.17l-31.957,-11.763zm48.401,14.428c-0.075,0.023 -0.151,0.047 -0.227,0.069c-0.415,0.126 -0.838,0.235 -1.269,0.326c-0.129,0.027 -0.259,0.047 -0.392,0.071c-0.386,0.072 -0.778,0.137 -1.175,0.18c-0.327,0.033 -0.659,0.046 -0.991,0.059c-0.21,0.009 -0.417,0.031 -0.63,0.032c-2.229,-0.007 -4.407,-0.494 -6.478,-1.454l-0.034,-0.016l-0.036,-0.014c-0.078,-0.031 -0.161,-0.059 -0.241,-0.087c-0.036,-0.012 -0.075,-0.023 -0.109,-0.038l-0.038,-0.018l-0.016,-0.005c-5.132,-2.55 -8.675,-7.833 -8.675,-13.941c0,-1.563 0.238,-3.071 0.669,-4.496l7.456,2.745c2.251,1.109 4.775,1.749 7.452,1.749c0.019,0 0.034,-0.002 0.052,-0.002c0.016,0 0.029,0.002 0.045,0.002c0.152,0 0.298,-0.023 0.448,-0.027c0.443,-0.014 0.89,-0.034 1.326,-0.082c0.354,-0.038 0.702,-0.101 1.05,-0.16c0.236,-0.042 0.475,-0.08 0.706,-0.13c0.389,-0.084 0.768,-0.184 1.146,-0.294c0.171,-0.051 0.343,-0.104 0.514,-0.16c0.415,-0.136 0.822,-0.282 1.222,-0.448c0.078,-0.032 0.15,-0.066 0.226,-0.1c0.355,-0.154 0.719,-0.295 1.062,-0.472l7.115,-2.619c0.431,1.425 0.667,2.932 0.667,4.495c0.001,6.938 -4.562,12.827 -10.845,14.835zm38.943,-15.251l0,0.823l-31.959,11.765c3.195,-3.075 5.19,-7.386 5.19,-12.172c0,-1.725 -0.262,-3.388 -0.742,-4.957l7.583,-2.791l19.928,7.332zm0,-16.906l0,0.823l-19.928,7.335l-7.58,-2.789c0.478,-1.567 0.739,-3.229 0.739,-4.954c0,-1.725 -0.262,-3.388 -0.742,-4.957l7.583,-2.791l19.928,7.333zm0,-16.906l0,0.823l-19.928,7.335l-7.58,-2.789c0.478,-1.567 0.739,-3.229 0.739,-4.954c0,-4.786 -1.995,-9.099 -5.19,-12.175l31.959,11.76z" fill="#000000"/>
  <g id="svg_12">
   <path fill="#ff0000" id="svg_13" d="m89.72779,23.362l-21.708,-23.006c-0.216,-0.228 -0.515,-0.356 -0.828,-0.356l-9.368,0l-25.61,0l-9.368,0c-0.313,0 -0.612,0.128 -0.828,0.356l-21.708,23.006c-0.418,0.443 -0.412,1.136 0.012,1.572l43.882,45.238c0.048,0.051 0.115,0.077 0.173,0.119c0.049,0.034 0.089,0.071 0.144,0.098c0.149,0.074 0.313,0.124 0.485,0.125c0.003,0 0.008,0.003 0.011,0.003c0,0 0,0 0.001,0l0.001,0c0.178,0 0.347,-0.051 0.504,-0.13c0.043,-0.022 0.076,-0.055 0.118,-0.082c0.064,-0.044 0.138,-0.077 0.193,-0.133l43.882,-45.238c0.424,-0.435 0.43,-1.128 0.012,-1.572zm-23.026,-21.088l20.051,21.25l-15.746,4.087l-11.425,-25.337l7.12,0zm-22.821,63.153l-21.966,-35.052l21.966,2.774l0,32.278zm2.276,-32.278l21.972,-2.783l-21.972,35.052l0,-32.269zm10.932,-30.875l11.602,25.736l-22.534,2.846l0,-28.582l10.932,0zm-24.14,0l10.933,0l0,28.584l-22.537,-2.839l11.604,-25.745zm-9.613,0l7.119,0l-11.421,25.33l-15.749,-4.08l20.051,-21.25zm-18.561,23.984l14.173,3.664l19.377,30.924l-33.55,-34.588zm46.925,34.602l19.385,-30.926l14.176,-3.673l-33.561,34.599z"/>
  </g>
  <g id="svg_14">
   <path id="svg_15" d="m309.507,27.373l0,-3.012c0,-10.751 -8.75,-19.501 -19.512,-19.501c-10.751,0 -19.491,8.75 -19.491,19.501l0,3.012c-10.326,6.506 -17.221,17.978 -17.221,31.056c0,20.243 16.474,36.712 36.711,36.712c20.248,0 36.722,-16.469 36.722,-36.712c0.001,-13.079 -6.894,-24.551 -17.209,-31.056zm-33.695,-2.805l0,-0.208c0,-7.828 6.366,-14.193 14.183,-14.193c7.828,0 14.204,6.366 14.204,14.193l0,0.208l0,5.878l0,24.711c0,7.823 -6.376,14.183 -14.204,14.183c-7.817,0 -14.183,-6.36 -14.183,-14.183l0,-24.716l0,-5.873zm14.183,65.265c-17.314,0 -31.403,-14.09 -31.403,-31.404c0,-9.953 4.666,-18.817 11.913,-24.582l0,21.311c0,10.746 8.74,19.491 19.491,19.491c10.762,0 19.512,-8.745 19.512,-19.491l0,-21.305c7.236,5.759 11.902,14.628 11.902,24.576c-0.001,17.314 -14.091,31.404 -31.415,31.404z"/>
   <path id="svg_16" d="m292.701,34.64c3.877,0 7.216,-2.182 8.958,-5.354c0.819,-1.467 1.317,-3.131 1.317,-4.925c0,-0.083 -0.021,-0.166 -0.021,-0.249c-0.135,-5.546 -4.676,-10.03 -10.253,-10.03c-5.018,0 -9.186,3.613 -10.087,8.372c-0.114,0.622 -0.187,1.254 -0.187,1.908c0,1.218 0.249,2.369 0.632,3.453c1.43,3.964 5.193,6.825 9.641,6.825zm0,-15.25c2.063,0 3.826,1.26 4.583,3.048c0.249,0.591 0.384,1.239 0.384,1.923c0,1.28 -0.519,2.421 -1.307,3.302c-0.912,1.011 -2.198,1.669 -3.66,1.669c-1.71,0 -3.152,-0.928 -4.043,-2.25c-0.539,-0.793 -0.922,-1.695 -0.922,-2.722c0,-0.964 0.342,-1.814 0.819,-2.582c0.88,-1.403 2.373,-2.388 4.146,-2.388z"/>
  </g>
  <g id="svg_17">
   <path id="svg_18" d="m193.715,31.334l-11.686,0l0,-4.796c1.583,-0.346 2.77,-1.752 2.77,-3.435c0,-1.942 -1.577,-3.521 -3.519,-3.521c-1.939,0 -3.521,1.579 -3.521,3.521c0,1.683 1.193,3.089 2.772,3.435l0,4.796l-9.783,0l0,-19.378c1.579,-0.348 2.77,-1.754 2.77,-3.438c0.001,-1.941 -1.579,-3.518 -3.518,-3.518c-1.944,0 -3.519,1.577 -3.519,3.519c0,1.683 1.188,3.089 2.77,3.438l0,19.378l-11.167,0l0,-4.796c1.58,-0.346 2.771,-1.752 2.771,-3.435c0,-1.942 -1.579,-3.521 -3.521,-3.521c-1.941,0 -3.518,1.579 -3.518,3.521c0,1.683 1.186,3.089 2.77,3.435l0,4.796l-10.302,0c-0.415,0 -0.749,0.334 -0.749,0.749l0,9.673l0,42.825l0,9.67c0,0.415 0.334,0.749 0.749,0.749l47.43,0c0.415,0 0.749,-0.334 0.749,-0.749l0,-9.67l0,-42.826l0,-9.673c0.001,-0.415 -0.333,-0.749 -0.748,-0.749zm-23.715,-24.836c1.113,0 2.021,0.906 2.021,2.021c0,0.851 -0.529,1.571 -1.272,1.868c-0.234,0.096 -0.482,0.153 -0.749,0.153s-0.519,-0.057 -0.749,-0.153c-0.743,-0.297 -1.272,-1.017 -1.272,-1.868c0,-1.115 0.908,-2.021 2.021,-2.021zm22.966,79.761l-7.243,7.243l-3.001,0l8.172,-8.173l2.072,0l0,0.93zm0,4.062l-3.183,3.181l-3,0l6.183,-6.185l0,3.004zm0,3.181l-2.125,0l2.125,-2.123l0,2.123zm-14.305,0l8.171,-8.173l3.002,0l-8.171,8.173l-3.002,0zm-4.06,0l8.171,-8.173l3.001,0l-8.171,8.173l-3.001,0zm-4.061,0l8.173,-8.173l3,0l-8.169,8.173l-3.004,0zm-4.063,0l8.173,-8.173l3.004,0l-8.175,8.173l-3.002,0zm-4.06,0l8.175,-8.173l3,0l-8.173,8.173l-3.002,0zm-4.06,0l8.173,-8.173l3.002,0l-8.173,8.173l-3.002,0zm-4.062,0l8.174,-8.173l3.002,0l-8.172,8.173l-3.004,0zm-4.058,0l8.169,-8.173l3.005,0l-8.175,8.173l-2.999,0zm-3.203,-52.497l0,-8.173l45.932,0l0,8.173l0,0.751l0,0.744l0,17.844l-45.932,0l0,-17.844l0,-0.745l0,-0.75zm0,44.324l2.195,0l-2.195,2.198l0,-2.198zm0,3.258l3.256,-3.258l2.998,0l-6.253,6.258l0,-3l-0.001,0zm44.298,-4.755l-3.002,0l-1.058,0l-3.001,0l-1.061,0l-3,0l-1.058,0l-3.004,0l-1.058,0l-3,0l-1.061,0l-3.001,0l-1.059,0l-3.002,0l-1.06,0l-3.004,0l-1.058,0l-3,0l-1.061,0l-2.998,0l-1.061,0l-3.693,0l0,-21.988l45.932,0l0,4.544l0,0.625l0,3.002l0,1.059l0,3.003l0,1.058l0,3.002l0,1.06l0,3l0,1.061l0,0.574l-0.574,0l-1.058,0zm-44.298,9.67l0,-0.856l7.312,-7.316l3.002,0l-8.171,8.173l-2.143,0l0,-0.001z"/>
   <path id="svg_19" d="m175.603,71.139c-0.167,-0.765 -0.472,-1.481 -0.891,-2.113c-0.137,-0.211 -0.301,-0.401 -0.466,-0.592c-0.46,-0.547 -1.003,-1.011 -1.624,-1.377c-0.226,-0.134 -0.446,-0.269 -0.686,-0.373c-0.771,-0.335 -1.616,-0.523 -2.511,-0.523c-0.326,0 -0.639,0.047 -0.951,0.096c-0.063,0.008 -0.128,0.008 -0.191,0.018c-2.58,0.473 -4.605,2.5 -5.078,5.08c-0.069,0.371 -0.114,0.749 -0.114,1.138c0,0.012 0.002,0.022 0.002,0.033c0.006,0.881 0.189,1.718 0.521,2.479c0.106,0.242 0.24,0.466 0.373,0.686c0.366,0.621 0.83,1.164 1.376,1.626c0.195,0.163 0.382,0.329 0.592,0.466c0.634,0.419 1.349,0.722 2.114,0.889c0.309,0.067 0.626,0.091 0.948,0.112c0.139,0.01 0.265,0.041 0.408,0.041c1.565,0 2.975,-0.586 4.083,-1.527l0.72,-0.724c0.94,-1.103 1.526,-2.516 1.526,-4.081c0,-0.138 -0.032,-0.268 -0.041,-0.405c-0.021,-0.323 -0.045,-0.642 -0.11,-0.949z"/>
   <path id="svg_20" d="m157.409,39.872l23.947,0c0.417,0 0.749,-0.336 0.749,-0.749c0,-0.415 -0.332,-0.749 -0.749,-0.749l-23.947,0c-0.411,0 -0.749,0.334 -0.749,0.749c0,0.413 0.338,0.749 0.749,0.749z"/>
   <path id="svg_21" d="m157.409,49.194l23.947,0c0.417,0 0.749,-0.336 0.749,-0.749c0,-0.415 -0.332,-0.751 -0.749,-0.751l-23.947,0c-0.411,0 -0.749,0.336 -0.749,0.751c0,0.413 0.338,0.749 0.749,0.749z"/>
   <path id="svg_22" d="m160.287,43.034c-0.411,0 -0.749,0.337 -0.749,0.749c0,0.416 0.338,0.749 0.749,0.749l18.189,0c0.417,0 0.751,-0.333 0.751,-0.749c0,-0.411 -0.333,-0.749 -0.751,-0.749l-18.189,0z"/>
   <path id="svg_23" d="m178.476,52.357l-18.189,0c-0.411,0 -0.749,0.335 -0.749,0.751c0,0.411 0.338,0.747 0.749,0.747l18.189,0c0.417,0 0.751,-0.336 0.751,-0.747c0,-0.416 -0.333,-0.751 -0.751,-0.751z"/>
  </g>
  <path id="svg_24" d="m429.387,19.301c-2.563,-8.274 -10.282,-14.301 -19.387,-14.301c-9.102,0 -16.824,6.027 -19.387,14.301l-0.906,0l0,5.994l0,5.992l0.906,0c0.922,2.984 2.531,5.662 4.621,7.885l1.727,7.832l1.93,0l1.527,38.254c0,5.355 4.387,9.742 9.781,9.742s9.781,-4.387 9.781,-9.783l1.527,-38.213l1.531,0l1.727,-7.832c2.09,-2.223 3.699,-4.9 4.623,-7.885l0.904,0l0,-5.992l0,-5.994l-0.905,0zm-15.03,72.396l0,-44.693l1.463,0l0,43.459c-0.437,0.469 -0.922,0.885 -1.463,1.234zm-15.736,-46.759l-0.754,-3.414l-0.348,-1.57l-0.008,-0.049l0.414,0l0.555,0l0.59,0l0.072,0l0.482,0l2.91,0l0.555,0l0.586,0l0.559,0l2.908,0l0.557,0l0.586,0l0.555,0l0.644,0l0,1.348l0,2.247l0,0.148l0,0.885l0,0.404l-4.5,0l-6.176,0l-0.187,0l0,0.001zm-5.816,-13.651l0.012,0l-0.008,0.012c0,-0.004 -0.002,-0.006 -0.004,-0.012zm0.203,-12.533l0.262,0.547l-0.463,0c0.064,-0.184 0.131,-0.367 0.201,-0.547zm10.831,-10.592l-0.457,0.955l-0.32,-0.672c0.254,-0.105 0.516,-0.191 0.777,-0.283zm2.239,-0.66l1.344,2.813l-1.734,3.635l-1.734,-3.635l1.234,-2.582c0.294,-0.083 0.589,-0.165 0.89,-0.231zm2.865,-0.381l-0.951,1.996l-0.86,-1.803c0.595,-0.095 1.2,-0.16 1.811,-0.193zm4.479,0.277l-0.82,1.719l-0.938,-1.967c0.594,0.055 1.18,0.139 1.758,0.248zm4.004,1.266l-0.215,0.449l-0.328,-0.689c0.183,0.076 0.363,0.156 0.543,0.24zm6.746,5.19l-0.047,0.098l-0.176,-0.369c0.074,0.089 0.149,0.179 0.223,0.271zm0.277,22.513c-0.395,0.512 -0.811,1.004 -1.254,1.471l-0.098,0l1.027,-2.152l0.325,0.681zm-1.969,3.588l-0.334,1.508l0,-1.225l0,-0.334l0.344,0l-0.01,0.051zm-1.367,4.983l-0.336,0l0,-2.477l0,-1.199l0,-0.957l0,-0.34l0,-0.061l0.083,0l0.111,0l0.143,0l0,1.107l0,1.246l0,2.681l-0.001,0zm-25.199,-8.088l0.555,-1.162l1.027,2.15l-0.688,0c-0.308,-0.32 -0.611,-0.645 -0.894,-0.988zm-4.141,-10.651l0,-0.365l0,-0.539l0,-1.494l0,-0.363l0,-2.072l0.438,0l0.723,0l1.145,0l0.176,0l1.143,0l2.146,0l1.145,0l0.174,0l1.143,0l2.148,0l1.145,0l0.176,0l1.141,0l2.148,0l1.145,0l0.171,0l1.145,0l0.261,0l0,0.551l0,2.398l0,1.008l0,2.398l0,1.502l-0.714,0l-0.41,0l-0.734,0l-0.408,0l-3.057,0l-0.41,0l-0.73,0l-0.414,0l-3.055,0l-0.411,0l-0.734,0l-0.408,0l-3.057,0l-0.41,0l-0.73,0l-0.412,0l-1.178,0l-0.438,0l0,-3.024l-0.003,0zm34.879,1.781l0,0.943l0,0.299l-0.59,0l-0.395,0l0,-2.365l0,-4.078l0,-1.414l0.676,0l0.172,0l0.137,0l0,0.291l0,6.324zm-8.269,12.602l0,0.885l0,1.152l0,1.139l0,1.18l-0.73,0l0,-0.858l0,-1.109l0,-1.152l0,-0.367l0,-1.547l0.406,0l0.324,0l0,0.677zm-10.526,-2.744l-1.6,-3.352l1.527,-3.199l0.416,0l1.525,3.197l-1.602,3.354l-0.266,0zm-4.607,0l-1.598,-3.352l1.523,-3.199l0.416,0l1.523,3.199l-1.596,3.352l-0.268,0zm-4.609,0l-1.6,-3.352l1.525,-3.199l0.418,0l1.523,3.199l-1.598,3.352l-0.268,0zm19.847,0l1.027,-2.15l1.025,2.15l-2.052,0zm-3.043,-10.688l0,-2.266l0,-0.133l0,-2.266l0,-1.121l0.536,0l1.145,0l0.172,0l0.051,0l0,0.107l0,6.691l0,0.578l0,0.48l-0.504,0l-0.41,0l-0.989,0l0,-2.07l-0.001,0zm6.289,-5.785l0.172,0l0.715,0l0,1.498l0,3.908l0,2.4l0,0.051l-0.023,0l-0.411,0l-0.734,0l-0.398,0l0,-2.372l0,-4.063l0,-1.422l0.679,0zm-7.856,16.473l1.028,-2.15l1.023,2.15l-2.051,0zm3.196,0l-1.598,-3.35l1.527,-3.201l0.414,0l1.527,3.201l-1.598,3.35l-0.272,0zm-2.168,-4.549l-0.953,-2.002l1.906,0l-0.953,2.002zm5.117,-10.734l0,2.129l0,0.27l0,2.127l0,2.143l-1.643,0l0,-0.824l0,-2.4l0,-2.359l0,-2.273l0.061,0l1.582,0l0,1.187zm-9.726,10.732l-0.953,-2l1.906,0l-0.953,2zm2.098,-2l0.414,0l1.527,3.201l-1.602,3.35l-0.268,0l-1.599,-3.354l1.528,-3.197zm6.168,0l1.906,0l-0.953,2.002l-0.953,-2.002zm5.089,-4.281l0,-1.977l0,-0.424l0,-1.977l0,-1.264l0.984,0l0,1.18l0,2.146l0,0.254l0,2.146l0,2.131l-0.984,0l0,-2.215zm-13.136,-0.526l0,-0.926l0,-1.473l0,-0.926l0,-1.791l0.855,0l1.141,0l0.176,0l1.145,0l0.582,0l0,1.221l0,2.066l0,0.332l0,2.066l0,2.172l-1.035,0l-0.412,0l-0.732,0l-0.41,0l-1.309,0l0,-2.741l-0.001,0zm-3.875,4.807l-0.953,2l-0.953,-2l1.906,0zm-4.61,0l-0.953,2.002l-0.953,-2.002l1.906,0zm-0.953,4.401l1.027,2.15l-2.051,0l1.024,-2.15zm4.61,0l1.027,2.15l-2.055,0l1.028,-2.15zm4.609,-0.002l1.027,2.152l-2.055,0l1.028,-2.152zm3.558,8.486l0,-1.023l0,-0.039l0,-2.361l0,-0.844l0.957,0l0,2.854l0,0.104l0,0.295l0,0.771l0,1.01l-0.957,0l0,-0.767zm1.989,0.766l0,-0.211l0,-1.078l0,-0.26l0,-0.842l0,-1.557l0,-1.086l0.52,0l0.258,0l0,1.857l0,0.502l0,1.104l0,1.092l0,0.479l-0.778,0zm5.84,-7.1l-1.598,-3.35l1.527,-3.201l0.414,0l1.527,3.199l-1.602,3.352l-0.268,0zm1.035,-18.537l1.406,-2.951l1.406,2.951l-2.812,0zm-0.899,-0.518l-1.734,-3.635l1.734,-3.635l1.734,3.637l-1.734,3.633zm-0.898,0.518l-2.813,0l1.407,-2.953l1.406,2.953zm-3.711,-0.518l-1.734,-3.635l1.734,-3.635l1.734,3.635l-1.734,3.635zm-0.898,0.518l-2.813,0l1.406,-2.953l1.407,2.953zm-3.711,-0.518l-1.734,-3.631l1.734,-3.636l1.734,3.633l-1.734,3.634zm-0.899,0.518l-2.813,0l1.406,-2.951l1.407,2.951zm-3.711,-0.516l-1.734,-3.635l1.734,-3.635l1.734,3.636l-1.734,3.634zm-0.898,0.516l-2.813,0l1.406,-2.951l1.407,2.951zm-3.711,-0.518l-1.73,-3.633l1.73,-3.635l1.732,3.635l-1.732,3.633zm-0.897,0.518l-2.814,0l1.406,-2.953l1.408,2.953zm-3.713,-0.516l-1.732,-3.635l1.732,-3.637l1.734,3.637l-1.734,3.635zm-0.896,0.516l-2.815,0l1.407,-2.951l1.408,2.951zm-0.455,11.986l-0.953,2l-0.953,-2l1.906,0zm13.094,13.246l0,-1.033l0,-0.082l0,-0.922l0,-2.592l1.236,0l0.556,0l0.512,0l0,0.152l0,0.924l0,2.305l0,1.043l0,0.609l-2.305,0l0,-0.404l0.001,0zm8.898,0.405l0,-1.68l0,-1.166l0,-1.213l0,-0.975l0.332,0l0,0.771l0,1.215l0,1.197l0,1.85l-0.332,0l0,0.001zm3.758,-13.651l1.906,0l-0.953,2l-0.953,-2zm4.516,-2.064l0,-1.01l0,-2.398l0,-1.992l0,-2.399l0,-0.058l0.102,0l0.437,0l0,1.193l0,2.121l0,0.277l0,0.338l0,1.781l0,2.146l-0.437,0l-0.102,0l0,0.001zm-1.258,-10.438l-1.735,-3.635l0.176,-0.363c0.734,1.035 1.371,2.145 1.879,3.326l-0.32,0.672zm-6.914,-4.836l-1.734,-3.637l0.574,-1.201c0.938,0.486 1.824,1.057 2.66,1.691l-1.5,3.147zm-2.877,-3.636l-1.732,3.637l-1.733,-3.635l1.276,-2.678c0.352,0.09 0.705,0.172 1.047,0.281l1.142,2.395zm-4.608,0.001l-1.734,3.637l-1.734,-3.637l1.547,-3.242c0.129,0 0.254,0.016 0.383,0.018l1.538,3.224zm-9.218,0l-1.734,3.635l-1.654,-3.473c0.85,-0.609 1.753,-1.139 2.705,-1.598l0.683,1.436zm-6.344,3.635l-0.258,-0.541c0.34,-0.393 0.688,-0.773 1.059,-1.135l-0.801,1.676zm-0.571,1.201l-1.734,3.633l-0.613,-1.287c0.539,-1.135 1.191,-2.203 1.943,-3.193l0.404,0.847zm-1.941,16.137l0.416,0l1.525,3.199l-0.682,1.43c-0.74,-1.023 -1.38,-2.125 -1.894,-3.295l0.635,-1.334zm15.527,15.717l0,45.859c-3.916,-0.367 -7.001,-3.635 -7.001,-7.646l-1.525,-38.213l8.526,0zm1.032,45.9l0,-45.9l2.809,0l0,45.254c-0.864,0.387 -1.813,0.605 -2.809,0.646zm6.337,-45.9l0.979,0l0,39.006c-0.117,1.1 -0.453,2.121 -0.979,3.033l0,-42.039zm2.012,0l0.576,0l-0.576,14.398l0,-14.398zm5.83,-12.518l1.524,-3.199l0.418,0l0.316,0.662c-0.484,1.229 -1.082,2.396 -1.809,3.477l-0.449,-0.94z"/>
  <path id="svg_25" d="m560.068,33.851c-0.838,-16.166 -13.981,-29.071 -30.068,-29.071s-29.237,12.904 -30.068,29.07l-0.079,0l0,1.616l0,4.861l0,4.138l0,9.329l0,3.771l0,6.968c0,2.332 0.281,4.596 0.759,6.781c0.321,1.407 0.739,2.764 1.23,4.089c4.325,11.564 15.296,19.817 28.158,19.817c12.855,0 23.833,-8.253 28.151,-19.813c0.497,-1.325 0.916,-2.686 1.223,-4.085c0.491,-2.192 0.772,-4.452 0.772,-6.788l0,-6.961l0,-2.591l0,-1.207l0,-9.359l0,-1.289l0,-2.908l0,-4.753l0,-1.616l-0.078,0l0,0.001zm-31.658,44.022l0,3.232l0,10.804c-9.78,-0.585 -18.161,-6.473 -22.407,-14.896c-0.654,-1.305 -1.229,-2.666 -1.675,-4.082c-0.837,-2.65 -1.302,-5.466 -1.302,-8.397l0,-5.228l0,-3.641l0,-6.582c1.937,3.955 4.658,7.429 7.988,10.189c3.696,3.055 8.099,5.25 12.934,6.254c1.446,0.304 2.944,0.461 4.462,0.54l0,11.807zm7.04,-0.193l0,3.235l0,10.51c-1.256,0.262 -2.551,0.402 -3.86,0.484l0,-10.804l0,-3.232l0,-11.805c1.309,-0.069 2.604,-0.213 3.86,-0.448l0,12.06zm7.144,-13.173l0,12.23l0,3.281l0,8.776c-1.263,0.68 -2.591,1.256 -3.965,1.727l0,-9.912l0,-3.254l0,-12.122l0,-0.379c1.368,-0.416 2.683,-0.945 3.965,-1.547l0,1.2zm7.177,-5.502l0,1.086l0,2.368l0,12.545l0,3.356l0,4.782c-1.21,1.338 -2.551,2.548 -4.004,3.622l0,-7.376l0,-3.317l0,-12.345l0,-1.996l-0.262,0c0.242,-0.147 0.491,-0.294 0.727,-0.448c0.902,-0.592 1.786,-1.227 2.623,-1.911c0.314,-0.258 0.615,-0.53 0.916,-0.801l0,0.435zm7.203,-3.326l0,1.142l0,2.519l0,5.195c0,2.931 -0.465,5.75 -1.309,8.4c-0.445,1.417 -1.014,2.777 -1.668,4.083c-0.327,0.641 -0.681,1.263 -1.054,1.875l0,-1.515l0,-3.409l0,-12.76l0,-2.398l0,-1.111l0,-2.231l-0.131,0c1.636,-1.933 3.029,-4.076 4.161,-6.385l0,6.595l0.001,0zm-0.085,-18.6c-0.125,2.267 -0.498,4.465 -1.132,6.552c-0.38,1.236 -0.877,2.424 -1.413,3.579c-0.255,0.54 -0.511,1.083 -0.792,1.606c-3.768,6.846 -10.317,11.9 -18.083,13.533c-1.766,0.373 -3.598,0.572 -5.469,0.572c-1.891,0 -3.735,-0.206 -5.515,-0.585c-4.514,-0.955 -8.603,-3.072 -11.979,-6.016c-0.138,-0.115 -0.262,-0.242 -0.393,-0.36l0.726,-0.739l2.329,-2.372l0.189,-0.196l2.545,-2.594l10.841,-11.03c0.379,0.137 0.771,0.249 1.204,0.249c1.492,0 2.761,-0.906 3.363,-2.198c0.229,-0.494 0.386,-1.03 0.386,-1.613c0,-0.585 -0.157,-1.122 -0.386,-1.616c-0.602,-1.292 -1.871,-2.198 -3.363,-2.198s-2.768,0.906 -3.369,2.198c-0.229,0.494 -0.379,1.03 -0.379,1.616c0,0.465 0.111,0.903 0.262,1.315l-0.295,0.298l-11.665,11.88l-2.466,2.505l-2.166,2.208c-1.302,-1.485 -2.453,-3.101 -3.415,-4.848c-0.883,-1.606 -1.616,-3.307 -2.172,-5.093c-0.661,-2.12 -1.047,-4.354 -1.178,-6.653c-0.026,-0.54 -0.079,-1.07 -0.079,-1.613c0,-0.546 0.052,-1.076 0.079,-1.616c0.825,-14.386 12.562,-25.841 26.896,-25.841s26.064,11.456 26.889,25.842c0.033,0.54 0.085,1.07 0.085,1.616c0,0.542 -0.053,1.073 -0.085,1.612z"/>
  <polygon id="svg_26" points="-215.986,810.455 -216.015,810.482 -215.959,810.482 " fill="none"/>
  <text id="svg_27" font-family="'Helvetica Neue', Helvetica, Arial-Unicode, Arial, Sans-serif" font-weight="bold" font-size="5px" fill="#000000" y="115" x="0">Created by Lucas Rod</text>
  <text id="svg_28" font-family="'Helvetica Neue', Helvetica, Arial-Unicode, Arial, Sans-serif" font-weight="bold" font-size="5px" fill="#000000" y="120" x="0">from the Noun Project</text>
 </g>
</svg>